<?xml version="1.0" encoding="UTF-8" standalone="no"?>
<!-- Created with Inkscape (http://www.inkscape.org/) -->

<svg
   xmlns:dc="http://purl.org/dc/elements/1.1/"
   xmlns:cc="http://creativecommons.org/ns#"
   xmlns:rdf="http://www.w3.org/1999/02/22-rdf-syntax-ns#"
   xmlns:svg="http://www.w3.org/2000/svg"
   xmlns="http://www.w3.org/2000/svg"
   xmlns:sodipodi="http://sodipodi.sourceforge.net/DTD/sodipodi-0.dtd"
   xmlns:inkscape="http://www.inkscape.org/namespaces/inkscape"
   width="512"
   height="512"
   viewBox="0 0 512 512"
   id="svg2"
   version="1.1"
   inkscape:version="0.91 r13725"
   sodipodi:docname="hamster.svg">
  <defs
     id="defs4" />
  <sodipodi:namedview
     id="base"
     pagecolor="#000882"
     bordercolor="#666666"
     borderopacity="1.0"
     inkscape:pageopacity="0"
     inkscape:pageshadow="2"
     inkscape:zoom="1.4"
     inkscape:cx="310.1902"
     inkscape:cy="142.45422"
     inkscape:document-units="px"
     inkscape:current-layer="layer1"
     showgrid="false"
     units="px"
     inkscape:window-width="1920"
     inkscape:window-height="1017"
     inkscape:window-x="0"
     inkscape:window-y="30"
     inkscape:window-maximized="1" />
  <metadata
     id="metadata7">
    <rdf:RDF>
      <cc:Work
         rdf:about="">
        <dc:format>image/svg+xml</dc:format>
        <dc:type
           rdf:resource="http://purl.org/dc/dcmitype/StillImage" />
        <dc:title></dc:title>
      </cc:Work>
    </rdf:RDF>
  </metadata>
  <g
     inkscape:label="Layer 1"
     inkscape:groupmode="layer"
     id="layer1"
     transform="translate(0,-540.36216)">
    <circle
       style="opacity:0.93999999;fill:none;fill-opacity:1;stroke:#ffffff;stroke-width:8;stroke-miterlimit:4;stroke-dasharray:none;stroke-opacity:1"
       id="path4156"
       cx="249.28572"
       cy="779.505"
       r="217.85715" />
    <path
       style="color:#000000;clip-rule:nonzero;display:inline;overflow:visible;visibility:visible;opacity:0.93999999;isolation:auto;mix-blend-mode:normal;color-interpolation:sRGB;color-interpolation-filters:linearRGB;solid-color:#000000;solid-opacity:1;fill:none;fill-opacity:1;fill-rule:nonzero;stroke:#ffffff;stroke-width:8;stroke-linecap:butt;stroke-linejoin:miter;stroke-miterlimit:4;stroke-dasharray:none;stroke-dashoffset:0;stroke-opacity:1;color-rendering:auto;image-rendering:auto;shape-rendering:auto;text-rendering:auto;enable-background:accumulate"
       d="m 159.76227,911.56345 c -71.601528,-3.06197 -44.85535,-76.63322 9.65642,-85.48812 28.88555,-4.69217 83.42173,13.29227 105.92945,7.19867"
       id="path4219"
       inkscape:connector-curvature="0"
       sodipodi:nodetypes="csc" />
    <path
       style="color:#000000;clip-rule:nonzero;display:inline;overflow:visible;visibility:visible;opacity:0.93999999;isolation:auto;mix-blend-mode:normal;color-interpolation:sRGB;color-interpolation-filters:linearRGB;solid-color:#000000;solid-opacity:1;fill:none;fill-opacity:1;fill-rule:nonzero;stroke:#ffffff;stroke-width:8;stroke-linecap:butt;stroke-linejoin:round;stroke-miterlimit:4;stroke-dasharray:none;stroke-dashoffset:0;stroke-opacity:1;color-rendering:auto;image-rendering:auto;shape-rendering:auto;text-rendering:auto;enable-background:accumulate"
       d="m 113.36801,881.29431 c -20.469115,-3.05364 -8.56425,-32.95539 5.71546,-25.09165"
       id="path4231"
       inkscape:connector-curvature="0"
       sodipodi:nodetypes="cc" />
    <path
       style="color:#000000;clip-rule:nonzero;display:inline;overflow:visible;visibility:visible;opacity:0.93999999;isolation:auto;mix-blend-mode:normal;color-interpolation:sRGB;color-interpolation-filters:linearRGB;solid-color:#000000;solid-opacity:1;fill:none;fill-opacity:1;fill-rule:nonzero;stroke:#ffffff;stroke-width:8;stroke-linecap:butt;stroke-linejoin:round;stroke-miterlimit:4;stroke-dasharray:none;stroke-dashoffset:0;stroke-opacity:1;color-rendering:auto;image-rendering:auto;shape-rendering:auto;text-rendering:auto;enable-background:accumulate"
       d="m 273.70273,835.14057 c 39.19585,-5.21327 75.53304,-21.50704 115.16888,-9.85261 8.83852,2.59885 15.16208,10.53238 21.98308,14.54364"
       id="path4283"
       inkscape:connector-curvature="0"
       sodipodi:nodetypes="csc" />
    <path
       style="color:#000000;clip-rule:nonzero;display:inline;overflow:visible;visibility:visible;opacity:0.93999999;isolation:auto;mix-blend-mode:normal;color-interpolation:sRGB;color-interpolation-filters:linearRGB;solid-color:#000000;solid-opacity:1;fill:none;fill-opacity:1;fill-rule:nonzero;stroke:#ffffff;stroke-width:8;stroke-linecap:butt;stroke-linejoin:miter;stroke-miterlimit:4;stroke-dasharray:none;stroke-dashoffset:0;stroke-opacity:1;color-rendering:auto;image-rendering:auto;shape-rendering:auto;text-rendering:auto;enable-background:accumulate"
       d="m 302.10125,848.95385 c -14.40635,-3.75577 -16.12172,-22.99115 1.01015,-27.27412 9.05604,-2.26401 16.64338,7.07107 25.25382,7.07107"
       id="path4289"
       inkscape:connector-curvature="0" />
    <path
       style="color:#000000;clip-rule:nonzero;display:inline;overflow:visible;visibility:visible;opacity:0.93999999;isolation:auto;mix-blend-mode:normal;color-interpolation:sRGB;color-interpolation-filters:linearRGB;solid-color:#000000;solid-opacity:1;fill:none;fill-opacity:1;fill-rule:nonzero;stroke:#ffffff;stroke-width:8;stroke-linecap:butt;stroke-linejoin:round;stroke-miterlimit:4;stroke-dasharray:none;stroke-dashoffset:0;stroke-opacity:1;color-rendering:auto;image-rendering:auto;shape-rendering:auto;text-rendering:auto;enable-background:accumulate"
       d="m 407.50646,834.26359 c 1.00245,3.16776 2.30565,6.26959 2.91272,9.60661 1.07934,5.93305 0.90175,15.34185 -3.67656,18.36184 -3.06698,2.02307 -12.81356,7.37276 -14.83709,10.70971 -8.18297,13.49436 -7.81833,10.02071 -21.75048,18.77316 -6.0846,3.82247 -11.61497,3.95567 -18.33303,3.95567 -3.75352,0 -8.44603,-0.75347 -7.88148,-0.75347"
       id="path4333"
       inkscape:connector-curvature="0"
       sodipodi:nodetypes="csssssc" />
    <path
       style="color:#000000;clip-rule:nonzero;display:inline;overflow:visible;visibility:visible;opacity:0.93999999;isolation:auto;mix-blend-mode:normal;color-interpolation:sRGB;color-interpolation-filters:linearRGB;solid-color:#000000;solid-opacity:1;fill:none;fill-opacity:1;fill-rule:nonzero;stroke:#ffffff;stroke-width:8;stroke-linecap:butt;stroke-linejoin:round;stroke-miterlimit:4;stroke-dasharray:none;stroke-dashoffset:0;stroke-opacity:1;color-rendering:auto;image-rendering:auto;shape-rendering:auto;text-rendering:auto;enable-background:accumulate"
       d="m 159.38438,912.36937 c 9.58953,-0.23714 20.17402,-0.40986 29.7995,1.51523 27.06878,5.41376 53.65973,3.93616 80.30713,-0.50507 17.32733,-2.88789 68.04179,-21.76612 78.7919,-18.18275"
       id="path4367"
       inkscape:connector-curvature="0" />
    <path
       id="path4385"
       style="color:#000000;clip-rule:nonzero;display:inline;overflow:visible;visibility:visible;opacity:0.93999999;isolation:auto;mix-blend-mode:normal;color-interpolation:sRGB;color-interpolation-filters:linearRGB;solid-color:#000000;solid-opacity:1;fill:none;fill-opacity:1;fill-rule:nonzero;stroke:#ffffff;stroke-width:8;stroke-linecap:butt;stroke-linejoin:round;stroke-miterlimit:4;stroke-dasharray:none;stroke-dashoffset:0;stroke-opacity:1;color-rendering:auto;image-rendering:auto;shape-rendering:auto;text-rendering:auto;enable-background:accumulate"
       d="m 207.73481,875.13031 c -0.33005,7.18792 4.28342,16.10825 1.13598,23.25512 -3.23606,7.34811 -5.32833,17.00979 -12.37682,21.72129 -1.82306,1.2186 -10.38753,8.31502 -9.60104,9.49157 5.84853,8.74955 18.73974,10.06373 26.51003,16.09201 6.47766,5.02542 -1.02294,15.75968 -7.02774,12.76649 m -45.76869,-43.17883 c 10.75763,9.54254 -12.62962,25.4216 -12.50395,26.41705 0.25122,1.98989 8.12477,3.87216 9.92832,4.50623 4.81652,1.69328 46.67167,14.81173 48.21365,14.07193 M 162.37821,915.0543 c -3.85655,-0.069 -7.38811,0.34112 -10.72293,-2.24606 -13.16673,-10.21487 -20.63269,-38.58722 -3.64811,-48.85639 9.90604,-5.98933 32.23144,-4.07413 42.70211,-1.07124 5.45294,1.56393 15.6795,9.28766 17.95431,11.05249"
       inkscape:connector-curvature="0" />
    <path
       id="path4533"
       style="color:#000000;clip-rule:nonzero;display:inline;overflow:visible;visibility:visible;opacity:0.93999999;isolation:auto;mix-blend-mode:normal;color-interpolation:sRGB;color-interpolation-filters:linearRGB;solid-color:#000000;solid-opacity:1;fill:none;fill-opacity:1;fill-rule:nonzero;stroke:#ffffff;stroke-width:8;stroke-linecap:butt;stroke-linejoin:miter;stroke-miterlimit:4;stroke-dasharray:none;stroke-dashoffset:0;stroke-opacity:1;color-rendering:auto;image-rendering:auto;shape-rendering:auto;text-rendering:auto;enable-background:accumulate"
       d="m 316.42857,889.14788 c -4.29048,2.59707 -9.24466,5.98932 -11.42857,10.35714 -1.6873,3.37461 -6.0047,9.84303 -4.64286,13.92857 1.96204,5.88611 15.99619,21.76064 22.5,23.92857 4.09447,1.36482 12.99799,0.85513 15.71429,3.57143 2.29471,2.29471 -9.1895,7.85714 -11.42857,7.85714 m -35.35714,-74.64285 c -4.66713,3.59473 -8.82202,7.54537 -12.5,12.14286 -3.32147,4.15183 -6.69833,5.89666 -8.92858,10.35714 -2.38141,4.76282 5.99184,14.86734 8.21429,18.57143 7.55079,12.58465 17.84797,28.68742 31.42857,33.21428 3.18098,1.06033 7.97052,-0.35714 11.07143,-0.35714 3.97886,0 10.20121,-0.13414 11.07143,-0.71429"
       inkscape:connector-curvature="0" />
    <ellipse
       style="opacity:0.93999999;fill:none;fill-opacity:1;stroke:#ffffff;stroke-width:8;stroke-linejoin:round;stroke-miterlimit:4;stroke-dasharray:none;stroke-opacity:1"
       id="path4542"
       cx="174.82143"
       cy="888.9693"
       rx="4.1071429"
       ry="3.75" />
    <ellipse
       style="opacity:0.93999999;fill:none;fill-opacity:1;stroke:#ffffff;stroke-width:8;stroke-linejoin:round;stroke-miterlimit:4;stroke-dasharray:none;stroke-opacity:1"
       id="path4550"
       cx="298.92856"
       cy="887.18359"
       rx="3.5714285"
       ry="4.1071429" />
    <ellipse
       style="opacity:0.93999999;fill:none;fill-opacity:1;stroke:#ffffff;stroke-width:8;stroke-linejoin:round;stroke-miterlimit:4;stroke-dasharray:none;stroke-opacity:1"
       id="path4542-0"
       cx="351.42859"
       cy="841.64789"
       rx="4.1071429"
       ry="3.75" />
  </g>
</svg>
