<?xml version="1.0" encoding="UTF-8" standalone="no"?>
<!-- Created with Inkscape (http://www.inkscape.org/) -->

<svg
   xmlns:dc="http://purl.org/dc/elements/1.1/"
   xmlns:cc="http://creativecommons.org/ns#"
   xmlns:rdf="http://www.w3.org/1999/02/22-rdf-syntax-ns#"
   xmlns:svg="http://www.w3.org/2000/svg"
   xmlns="http://www.w3.org/2000/svg"
   xmlns:sodipodi="http://sodipodi.sourceforge.net/DTD/sodipodi-0.dtd"
   xmlns:inkscape="http://www.inkscape.org/namespaces/inkscape"
   width="512"
   height="512"
   viewBox="0 0 512 512"
   id="svg2"
   version="1.1"
   inkscape:version="0.91 r13725"
   sodipodi:docname="lightbulb_on.svg"
   inkscape:export-filename="../assets/lightbulb_on.png"
   inkscape:export-xdpi="360"
   inkscape:export-ydpi="360">
  <defs
     id="defs4" />
  <sodipodi:namedview
     id="base"
     pagecolor="#000882"
     bordercolor="#666666"
     borderopacity="1.0"
     inkscape:pageopacity="0"
     inkscape:pageshadow="2"
     inkscape:zoom="1.979899"
     inkscape:cx="140.05308"
     inkscape:cy="223.83912"
     inkscape:document-units="px"
     inkscape:current-layer="layer1"
     showgrid="false"
     units="px"
     inkscape:window-width="1920"
     inkscape:window-height="1017"
     inkscape:window-x="0"
     inkscape:window-y="30"
     inkscape:window-maximized="1" />
  <metadata
     id="metadata7">
    <rdf:RDF>
      <cc:Work
         rdf:about="">
        <dc:format>image/svg+xml</dc:format>
        <dc:type
           rdf:resource="http://purl.org/dc/dcmitype/StillImage" />
        <dc:title></dc:title>
      </cc:Work>
    </rdf:RDF>
  </metadata>
  <g
     inkscape:label="Layer 1"
     inkscape:groupmode="layer"
     id="layer1"
     transform="translate(0,-540.36216)">
    <path
       style="opacity:1;fill:none;fill-opacity:1;stroke:#ffffff;stroke-width:8.85522556;stroke-miterlimit:4;stroke-dasharray:none;stroke-opacity:1"
       d="m 259.20164,556.36064 a 145.87404,145.87404 0 0 0 -145.87342,145.87558 145.87404,145.87404 0 0 0 59.48091,117.32957 l 0,64.85978 172.78501,0 0,-64.85545 a 145.87404,145.87404 0 0 0 59.4809,-117.3339 145.87404,145.87404 0 0 0 -145.8734,-145.87558 z"
       id="path4136"
       inkscape:connector-curvature="0" />
    <path
       style="opacity:1;fill:none;fill-opacity:1;stroke:#ffffff;stroke-width:8.85522556;stroke-miterlimit:4;stroke-dasharray:none;stroke-opacity:1"
       d="m 155.41433,884.5315 0,81.38333 -70.154318,0 0,68.78577 347.883248,0 0,-68.78577 -70.15432,0 0,-81.38333 -207.57461,0 z"
       id="rect4163"
       inkscape:connector-curvature="0" />
    <path
       style="fill:none;fill-rule:evenodd;stroke:#ffffff;stroke-width:8.85522556;stroke-linecap:butt;stroke-linejoin:miter;stroke-miterlimit:4;stroke-dasharray:none;stroke-opacity:1;opacity:1"
       d="m 173.81226,853.64383 173.94195,0"
       id="path4196"
       inkscape:connector-curvature="0" />
    <path
       style="opacity:1;fill:#ffffff;fill-opacity:1;stroke:#ffffff;stroke-width:8.85522556;stroke-miterlimit:4;stroke-dasharray:none;stroke-opacity:1"
       d="M 259.20117 15.998047 A 145.87404 145.87404 0 0 0 113.32812 161.875 A 145.87404 145.87404 0 0 0 172.80859 279.20312 L 172.80859 314.51562 L 345.59375 314.51562 L 345.59375 279.20703 A 145.87404 145.87404 0 0 0 405.07617 161.875 A 145.87404 145.87404 0 0 0 259.20117 15.998047 z "
       transform="translate(0,540.36216)"
       id="path4136-3" />
  </g>
</svg>
