# Blender v2.79 (sub 0) OBJ File: 'gears.blend'
# www.blender.org
mtllib gears.mtl
o LargeGear_Gear.001
v 0.940000 0.232653 -0.000000
v 1.940000 0.232653 -0.000000
v 1.931724 0.232653 -0.179001
v 0.935990 0.232653 -0.086732
v 1.906968 0.232653 -0.356474
v 0.923995 0.232653 -0.172725
v 1.865942 0.232653 -0.530906
v 0.904116 0.232653 -0.257243
v 1.991468 0.232653 -0.184537
v 1.965946 0.232653 -0.367499
v 1.923651 0.232653 -0.547326
v 2.182793 0.232653 -0.274619
v 2.162541 0.232653 -0.404249
v 2.134597 0.232653 -0.532441
v 0.876524 0.232653 -0.339567
v 1.808996 0.232653 -0.700809
v 1.736617 0.232653 -0.864732
v 0.841454 0.232653 -0.418994
v 1.649421 0.232653 -1.021278
v 0.799204 0.232653 -0.494846
v 1.548153 0.232653 -1.169111
v 0.750136 0.232653 -0.566477
v 1.790327 0.232653 -0.891477
v 1.700434 0.232653 -1.052864
v 1.596035 0.232653 -1.205269
v 1.936190 0.232653 -1.044590
v 1.870478 0.232653 -1.158151
v 1.798113 0.232653 -1.267592
v 0.694668 0.232653 -0.633274
v 1.433677 0.232653 -1.306970
v 1.306970 0.232653 -1.433677
v 0.633274 0.232653 -0.694668
v 1.169111 0.232653 -1.548153
v 0.566477 0.232653 -0.750136
v 1.021278 0.232653 -1.649421
v 0.494846 0.232653 -0.799204
v 1.347391 0.232653 -1.478018
v 1.205269 0.232653 -1.596034
v 1.052865 0.232653 -1.700434
v 1.428094 0.232653 -1.673484
v 1.325796 0.232653 -1.755638
v 1.218783 0.232653 -1.831548
v 0.418994 0.232653 -0.841453
v 0.864732 0.232653 -1.736617
v 0.700809 0.232653 -1.808996
v 0.339567 0.232653 -0.876524
v 0.530906 0.232653 -1.865942
v 0.257243 0.232653 -0.904116
v 0.356474 0.232653 -1.906968
v 0.172724 0.232653 -0.923995
v 0.722483 0.232653 -1.864944
v 0.547326 0.232653 -1.923651
v 0.367499 0.232653 -1.965946
v 0.727126 0.232653 -2.076364
v 0.602059 0.232653 -2.116016
v 0.474850 0.232653 -2.148143
v 0.086732 0.232653 -0.935990
v 0.179001 0.232653 -1.931724
v 0.000000 0.232653 -1.940000
v 0.000000 0.232653 -0.940000
v -0.179001 0.232653 -1.931724
v -0.086732 0.232653 -0.935990
v -0.356474 0.232653 -1.906968
v -0.172724 0.232653 -0.923995
v 0.000000 0.232653 -2.000000
v -0.184537 0.232653 -1.991468
v -0.367499 0.232653 -1.965946
v -0.072045 0.232653 -2.198820
v -0.202990 0.232653 -2.190615
v -0.333214 0.232653 -2.174619
v -0.257243 0.232653 -0.904116
v -0.530906 0.232653 -1.865942
v -0.700809 0.232653 -1.808996
v -0.339567 0.232653 -0.876524
v -0.864732 0.232653 -1.736617
v -0.418994 0.232653 -0.841453
v -1.021278 0.232653 -1.649421
v -0.494846 0.232653 -0.799204
v -0.722483 0.232653 -1.864944
v -0.891477 0.232653 -1.790327
v -1.052864 0.232653 -1.700434
v -0.861485 0.232653 -2.024313
v -0.980624 0.232653 -1.969359
v -1.096276 0.232653 -1.907401
v -0.566477 0.232653 -0.750136
v -1.169111 0.232653 -1.548153
v -1.306970 0.232653 -1.433677
v -0.633274 0.232653 -0.694668
v -1.433677 0.232653 -1.306970
v -0.694668 0.232653 -0.633274
v -1.548153 0.232653 -1.169111
v -0.750136 0.232653 -0.566477
v -1.347391 0.232653 -1.478018
v -1.478018 0.232653 -1.347391
v -1.596034 0.232653 -1.205269
v -1.534577 0.232653 -1.576411
v -1.625820 0.232653 -1.482130
v -1.711280 0.232653 -1.382578
v -0.799204 0.232653 -0.494846
v -1.649421 0.232653 -1.021278
v -1.736617 0.232653 -0.864732
v -0.841454 0.232653 -0.418994
v -1.808996 0.232653 -0.700809
v -0.876524 0.232653 -0.339567
v -1.865942 0.232653 -0.530906
v -0.904116 0.232653 -0.257243
v -1.790327 0.232653 -0.891477
v -1.864944 0.232653 -0.722483
v -1.923651 0.232653 -0.547326
v -2.000416 0.232653 -0.915607
v -2.051439 0.232653 -0.794732
v -2.095166 0.232653 -0.671030
v -0.923995 0.232653 -0.172725
v -1.906968 0.232653 -0.356474
v -1.931724 0.232653 -0.179001
v -0.935990 0.232653 -0.086732
v -1.940000 0.232653 -0.000000
v -0.940000 0.232653 -0.000000
v -1.931724 0.232653 0.179001
v -0.935990 0.232653 0.086732
v -1.991468 0.232653 -0.184537
v -2.000000 0.232653 -0.000000
v -1.991468 0.232653 0.184537
v -2.196088 0.232653 -0.131144
v -2.200000 0.232653 -0.000000
v -2.196088 0.232653 0.131144
v -0.923995 0.232653 0.172725
v -1.906968 0.232653 0.356474
v -1.865942 0.232653 0.530906
v -0.904116 0.232653 0.257243
v -1.808996 0.232653 0.700809
v -0.876524 0.232653 0.339567
v -1.736617 0.232653 0.864732
v -0.841454 0.232653 0.418994
v -1.923651 0.232653 0.547326
v -1.864944 0.232653 0.722483
v -1.790327 0.232653 0.891477
v -2.095166 0.232653 0.671030
v -2.051439 0.232653 0.794732
v -2.000416 0.232653 0.915607
v -0.799204 0.232653 0.494846
v -1.649421 0.232653 1.021278
v -1.548153 0.232653 1.169111
v -0.750136 0.232653 0.566477
v -1.433677 0.232653 1.306970
v -0.694668 0.232653 0.633274
v -1.306970 0.232652 1.433677
v -0.633274 0.232653 0.694668
v -1.596034 0.232653 1.205269
v -1.478018 0.232653 1.347391
v -1.347391 0.232652 1.478018
v -1.711280 0.232653 1.382578
v -1.625820 0.232652 1.482130
v -1.534577 0.232652 1.576411
v -0.566477 0.232653 0.750136
v -1.169111 0.232652 1.548153
v -1.021278 0.232652 1.649421
v -0.494846 0.232653 0.799204
v -0.864732 0.232652 1.736617
v -0.418994 0.232653 0.841453
v -0.700809 0.232652 1.808996
v -0.339567 0.232653 0.876524
v -1.052864 0.232652 1.700434
v -0.891477 0.232652 1.790327
v -0.722483 0.232652 1.864944
v -1.096276 0.232652 1.907401
v -0.980624 0.232652 1.969359
v -0.861485 0.232652 2.024313
v -0.257243 0.232653 0.904116
v -0.530906 0.232652 1.865942
v -0.356474 0.232652 1.906968
v -0.172724 0.232653 0.923995
v -0.179001 0.232652 1.931724
v -0.086732 0.232653 0.935990
v 0.000000 0.232652 1.940000
v 0.000000 0.232653 0.940000
v -0.367499 0.232652 1.965946
v -0.184537 0.232652 1.991468
v 0.000000 0.232652 2.000000
v -0.333214 0.232652 2.174619
v -0.202990 0.232652 2.190615
v -0.072045 0.232652 2.198820
v 0.086732 0.232653 0.935990
v 0.179001 0.232652 1.931724
v 0.356474 0.232652 1.906968
v 0.172724 0.232653 0.923995
v 0.530906 0.232652 1.865942
v 0.257243 0.232653 0.904116
v 0.700809 0.232652 1.808996
v 0.339567 0.232653 0.876524
v 0.367499 0.232652 1.965946
v 0.547326 0.232652 1.923651
v 0.722483 0.232652 1.864944
v 0.474850 0.232652 2.148143
v 0.602059 0.232652 2.116016
v 0.727126 0.232652 2.076364
v 0.418994 0.232653 0.841453
v 0.864732 0.232652 1.736617
v 1.021278 0.232652 1.649421
v 0.494846 0.232653 0.799204
v 1.169111 0.232652 1.548153
v 0.566477 0.232653 0.750136
v 1.306970 0.232652 1.433677
v 0.633274 0.232653 0.694668
v 1.052865 0.232652 1.700434
v 1.205269 0.232652 1.596034
v 1.347391 0.232652 1.478018
v 1.218783 0.232652 1.831548
v 1.325796 0.232652 1.755638
v 1.428094 0.232652 1.673484
v 0.694668 0.232653 0.633274
v 1.433677 0.232653 1.306970
v 1.548153 0.232653 1.169111
v 0.750136 0.232653 0.566477
v 1.649421 0.232653 1.021278
v 0.799204 0.232653 0.494846
v 1.736617 0.232653 0.864732
v 0.841454 0.232653 0.418994
v 1.596035 0.232653 1.205269
v 1.700434 0.232653 1.052864
v 1.790327 0.232653 0.891477
v 1.798113 0.232653 1.267592
v 1.870478 0.232653 1.158151
v 1.936190 0.232653 1.044590
v 0.876524 0.232653 0.339567
v 1.808996 0.232653 0.700809
v 1.865942 0.232653 0.530906
v 0.904116 0.232653 0.257243
v 1.906968 0.232653 0.356474
v 0.923995 0.232653 0.172725
v 1.931724 0.232653 0.179001
v 0.935990 0.232653 0.086732
v 1.923651 0.232653 0.547326
v 1.965946 0.232653 0.367499
v 1.991468 0.232653 0.184537
v 2.134597 0.232653 0.532441
v 2.162541 0.232653 0.404249
v 2.182793 0.232653 0.274619
vn 0.0000 -1.0000 -0.0000
usemtl GearA
s 1
f 1//1 4//1 3//1
f 3//1 4//1 6//1
f 6//1 8//1 7//1
f 9//1 3//1 5//1
f 10//1 5//1 7//1
f 12//1 9//1 10//1
f 10//1 11//1 14//1
f 16//1 15//1 18//1
f 18//1 20//1 19//1
f 19//1 20//1 22//1
f 23//1 17//1 19//1
f 19//1 21//1 25//1
f 26//1 23//1 24//1
f 24//1 25//1 28//1
f 16//1 7//1 8//1
f 29//1 32//1 31//1
f 31//1 32//1 34//1
f 34//1 36//1 35//1
f 37//1 31//1 33//1
f 33//1 35//1 39//1
f 40//1 37//1 38//1
f 38//1 39//1 42//1
f 21//1 22//1 29//1
f 44//1 43//1 46//1
f 46//1 48//1 47//1
f 47//1 48//1 50//1
f 51//1 45//1 47//1
f 47//1 49//1 53//1
f 54//1 51//1 52//1
f 52//1 53//1 56//1
f 44//1 35//1 36//1
f 58//1 57//1 60//1
f 60//1 62//1 61//1
f 61//1 62//1 64//1
f 59//1 61//1 66//1
f 66//1 61//1 63//1
f 68//1 65//1 66//1
f 66//1 67//1 70//1
f 58//1 49//1 50//1
f 72//1 71//1 74//1
f 74//1 76//1 75//1
f 76//1 78//1 77//1
f 79//1 73//1 75//1
f 80//1 75//1 77//1
f 82//1 79//1 80//1
f 80//1 81//1 84//1
f 72//1 63//1 64//1
f 85//1 88//1 87//1
f 88//1 90//1 89//1
f 89//1 90//1 92//1
f 87//1 89//1 94//1
f 94//1 89//1 91//1
f 96//1 93//1 94//1
f 94//1 95//1 98//1
f 77//1 78//1 85//1
f 100//1 99//1 102//1
f 102//1 104//1 103//1
f 104//1 106//1 105//1
f 101//1 103//1 108//1
f 108//1 103//1 105//1
f 110//1 107//1 108//1
f 108//1 109//1 112//1
f 100//1 91//1 92//1
f 113//1 116//1 115//1
f 115//1 116//1 118//1
f 118//1 120//1 119//1
f 121//1 115//1 117//1
f 117//1 119//1 123//1
f 124//1 121//1 122//1
f 122//1 123//1 126//1
f 105//1 106//1 113//1
f 127//1 130//1 129//1
f 129//1 130//1 132//1
f 131//1 132//1 134//1
f 129//1 131//1 136//1
f 136//1 131//1 133//1
f 138//1 135//1 136//1
f 136//1 137//1 140//1
f 119//1 120//1 127//1
f 142//1 141//1 144//1
f 144//1 146//1 145//1
f 145//1 146//1 148//1
f 143//1 145//1 150//1
f 145//1 147//1 151//1
f 152//1 149//1 150//1
f 150//1 151//1 154//1
f 142//1 133//1 134//1
f 155//1 158//1 157//1
f 157//1 158//1 160//1
f 159//1 160//1 162//1
f 157//1 159//1 164//1
f 159//1 161//1 165//1
f 166//1 163//1 164//1
f 164//1 165//1 168//1
f 147//1 148//1 155//1
f 170//1 169//1 172//1
f 172//1 174//1 173//1
f 173//1 174//1 176//1
f 171//1 173//1 178//1
f 178//1 173//1 175//1
f 180//1 177//1 178//1
f 178//1 179//1 182//1
f 170//1 161//1 162//1
f 184//1 183//1 186//1
f 186//1 188//1 187//1
f 187//1 188//1 190//1
f 191//1 185//1 187//1
f 187//1 189//1 193//1
f 194//1 191//1 192//1
f 192//1 193//1 196//1
f 184//1 175//1 176//1
f 198//1 197//1 200//1
f 199//1 200//1 202//1
f 201//1 202//1 204//1
f 205//1 199//1 201//1
f 201//1 203//1 207//1
f 208//1 205//1 206//1
f 206//1 207//1 210//1
f 198//1 189//1 190//1
f 212//1 211//1 214//1
f 214//1 216//1 215//1
f 215//1 216//1 218//1
f 219//1 213//1 215//1
f 215//1 217//1 221//1
f 222//1 219//1 220//1
f 220//1 221//1 224//1
f 203//1 204//1 211//1
f 226//1 225//1 228//1
f 227//1 228//1 230//1
f 230//1 232//1 231//1
f 227//1 229//1 234//1
f 229//1 231//1 235//1
f 236//1 233//1 234//1
f 234//1 235//1 238//1
f 226//1 217//1 218//1
f 231//1 232//1 1//1
f 1//1 3//1 2//1
f 3//1 6//1 5//1
f 6//1 7//1 5//1
f 9//1 5//1 10//1
f 10//1 7//1 11//1
f 12//1 10//1 13//1
f 10//1 14//1 13//1
f 16//1 18//1 17//1
f 18//1 19//1 17//1
f 19//1 22//1 21//1
f 23//1 19//1 24//1
f 19//1 25//1 24//1
f 26//1 24//1 27//1
f 24//1 28//1 27//1
f 16//1 8//1 15//1
f 29//1 31//1 30//1
f 31//1 34//1 33//1
f 34//1 35//1 33//1
f 37//1 33//1 38//1
f 33//1 39//1 38//1
f 40//1 38//1 41//1
f 38//1 42//1 41//1
f 21//1 29//1 30//1
f 44//1 46//1 45//1
f 46//1 47//1 45//1
f 47//1 50//1 49//1
f 51//1 47//1 52//1
f 47//1 53//1 52//1
f 54//1 52//1 55//1
f 52//1 56//1 55//1
f 44//1 36//1 43//1
f 58//1 60//1 59//1
f 60//1 61//1 59//1
f 61//1 64//1 63//1
f 59//1 66//1 65//1
f 66//1 63//1 67//1
f 68//1 66//1 69//1
f 66//1 70//1 69//1
f 58//1 50//1 57//1
f 72//1 74//1 73//1
f 74//1 75//1 73//1
f 76//1 77//1 75//1
f 79//1 75//1 80//1
f 80//1 77//1 81//1
f 82//1 80//1 83//1
f 80//1 84//1 83//1
f 72//1 64//1 71//1
f 85//1 87//1 86//1
f 88//1 89//1 87//1
f 89//1 92//1 91//1
f 87//1 94//1 93//1
f 94//1 91//1 95//1
f 96//1 94//1 97//1
f 94//1 98//1 97//1
f 77//1 85//1 86//1
f 100//1 102//1 101//1
f 102//1 103//1 101//1
f 104//1 105//1 103//1
f 101//1 108//1 107//1
f 108//1 105//1 109//1
f 110//1 108//1 111//1
f 108//1 112//1 111//1
f 100//1 92//1 99//1
f 113//1 115//1 114//1
f 115//1 118//1 117//1
f 118//1 119//1 117//1
f 121//1 117//1 122//1
f 117//1 123//1 122//1
f 124//1 122//1 125//1
f 122//1 126//1 125//1
f 105//1 113//1 114//1
f 127//1 129//1 128//1
f 129//1 132//1 131//1
f 131//1 134//1 133//1
f 129//1 136//1 135//1
f 136//1 133//1 137//1
f 138//1 136//1 139//1
f 136//1 140//1 139//1
f 119//1 127//1 128//1
f 142//1 144//1 143//1
f 144//1 145//1 143//1
f 145//1 148//1 147//1
f 143//1 150//1 149//1
f 145//1 151//1 150//1
f 152//1 150//1 153//1
f 150//1 154//1 153//1
f 142//1 134//1 141//1
f 155//1 157//1 156//1
f 157//1 160//1 159//1
f 159//1 162//1 161//1
f 157//1 164//1 163//1
f 159//1 165//1 164//1
f 166//1 164//1 167//1
f 164//1 168//1 167//1
f 147//1 155//1 156//1
f 170//1 172//1 171//1
f 172//1 173//1 171//1
f 173//1 176//1 175//1
f 171//1 178//1 177//1
f 178//1 175//1 179//1
f 180//1 178//1 181//1
f 178//1 182//1 181//1
f 170//1 162//1 169//1
f 184//1 186//1 185//1
f 186//1 187//1 185//1
f 187//1 190//1 189//1
f 191//1 187//1 192//1
f 187//1 193//1 192//1
f 194//1 192//1 195//1
f 192//1 196//1 195//1
f 184//1 176//1 183//1
f 198//1 200//1 199//1
f 199//1 202//1 201//1
f 201//1 204//1 203//1
f 205//1 201//1 206//1
f 201//1 207//1 206//1
f 208//1 206//1 209//1
f 206//1 210//1 209//1
f 198//1 190//1 197//1
f 212//1 214//1 213//1
f 214//1 215//1 213//1
f 215//1 218//1 217//1
f 219//1 215//1 220//1
f 215//1 221//1 220//1
f 222//1 220//1 223//1
f 220//1 224//1 223//1
f 203//1 211//1 212//1
f 226//1 228//1 227//1
f 227//1 230//1 229//1
f 230//1 231//1 229//1
f 227//1 234//1 233//1
f 229//1 235//1 234//1
f 236//1 234//1 237//1
f 234//1 238//1 237//1
f 226//1 218//1 225//1
f 231//1 1//1 2//1
o SmallGear_Gear
v 0.640000 0.232652 -0.000000
v 0.940000 0.232652 -0.000000
v 0.925719 0.232652 -0.163229
v 0.630277 0.232652 -0.111135
v 0.883311 0.232652 -0.321499
v 0.601403 0.232652 -0.218893
v 0.814064 0.232652 -0.470000
v 0.554256 0.232652 -0.320000
v 0.984808 0.232652 -0.173648
v 0.939693 0.232652 -0.342020
v 0.866025 0.232652 -0.500000
v 1.167148 0.232652 -0.278863
v 1.127631 0.232652 -0.410424
v 1.073337 0.232652 -0.536607
v 0.490268 0.232652 -0.411384
v 0.720082 0.232652 -0.604220
v 0.604220 0.232652 -0.720082
v 0.411384 0.232652 -0.490268
v 0.470000 0.232652 -0.814064
v 0.320000 0.232652 -0.554256
v 0.321499 0.232652 -0.883311
v 0.218893 0.232652 -0.601403
v 0.642788 0.232652 -0.766044
v 0.500000 0.232652 -0.866025
v 0.342020 0.232652 -0.939693
v 0.714838 0.232652 -0.963850
v 0.600000 0.232652 -1.039230
v 0.477300 0.232652 -1.100993
v 0.111135 0.232652 -0.630277
v 0.163229 0.232652 -0.925719
v 0.000000 0.232652 -0.940000
v 0.000000 0.232652 -0.640000
v -0.163229 0.232652 -0.925719
v -0.111135 0.232652 -0.630277
v -0.321499 0.232652 -0.883311
v -0.218893 0.232652 -0.601403
v 0.000000 0.232652 -1.000000
v -0.173648 0.232652 -0.984808
v -0.342020 0.232652 -0.939693
v -0.071954 0.232652 -1.197841
v -0.208378 0.232652 -1.181769
v -0.342071 0.232652 -1.150212
v -0.320000 0.232652 -0.554256
v -0.470000 0.232652 -0.814064
v -0.604220 0.232652 -0.720082
v -0.411384 0.232652 -0.490268
v -0.720082 0.232652 -0.604220
v -0.490268 0.232652 -0.411384
v -0.814064 0.232652 -0.470000
v -0.554256 0.232652 -0.320000
v -0.642788 0.232652 -0.766044
v -0.766044 0.232652 -0.642788
v -0.866025 0.232652 -0.500000
v -0.825077 0.232652 -0.871348
v -0.919253 0.232652 -0.771345
v -1.001384 0.232652 -0.661234
v -0.601403 0.232652 -0.218893
v -0.883311 0.232652 -0.321499
v -0.925719 0.232652 -0.163229
v -0.630277 0.232652 -0.111135
v -0.940000 0.232652 -0.000000
v -0.640000 0.232652 -0.000000
v -0.925719 0.232652 0.163229
v -0.630277 0.232652 0.111135
v -0.984808 0.232652 -0.173648
v -1.000000 0.232652 -0.000000
v -0.984808 0.232652 0.173648
v -1.192138 0.232652 -0.137142
v -1.200000 0.232652 -0.000000
v -1.192138 0.232652 0.137142
v -0.601403 0.232652 0.218893
v -0.883311 0.232652 0.321499
v -0.814064 0.232652 0.470000
v -0.554256 0.232652 0.320000
v -0.720082 0.232652 0.604220
v -0.490268 0.232652 0.411384
v -0.604220 0.232652 0.720082
v -0.411384 0.232652 0.490268
v -0.866025 0.232652 0.500000
v -0.766044 0.232652 0.642788
v -0.642788 0.232652 0.766044
v -1.001384 0.232652 0.661234
v -0.919253 0.232652 0.771345
v -0.825077 0.232652 0.871348
v -0.320000 0.232652 0.554256
v -0.470000 0.232652 0.814064
v -0.321499 0.232652 0.883311
v -0.218893 0.232652 0.601403
v -0.163229 0.232652 0.925719
v -0.111135 0.232652 0.630277
v 0.000000 0.232652 0.940000
v 0.000000 0.232652 0.640000
v -0.342020 0.232652 0.939693
v -0.173648 0.232652 0.984808
v 0.000000 0.232652 1.000000
v -0.342071 0.232652 1.150212
v -0.208378 0.232652 1.181769
v -0.071954 0.232652 1.197841
v 0.111135 0.232652 0.630277
v 0.163229 0.232652 0.925719
v 0.321499 0.232652 0.883311
v 0.218893 0.232652 0.601403
v 0.470000 0.232652 0.814064
v 0.320000 0.232652 0.554256
v 0.604220 0.232652 0.720082
v 0.411384 0.232652 0.490268
v 0.342020 0.232652 0.939693
v 0.500000 0.232652 0.866025
v 0.642788 0.232652 0.766044
v 0.477300 0.232652 1.100993
v 0.600000 0.232652 1.039230
v 0.714838 0.232652 0.963850
v 0.490268 0.232652 0.411384
v 0.720082 0.232652 0.604220
v 0.814064 0.232652 0.470000
v 0.554256 0.232652 0.320000
v 0.883311 0.232652 0.321499
v 0.601403 0.232652 0.218893
v 0.925719 0.232652 0.163229
v 0.630277 0.232652 0.111135
v 0.866025 0.232652 0.500000
v 0.939693 0.232652 0.342020
v 0.984808 0.232652 0.173648
v 1.073337 0.232652 0.536607
v 1.127631 0.232652 0.410424
v 1.167148 0.232652 0.278863
vn 0.0000 -1.0000 -0.0000
usemtl GearB
s 1
f 239//2 242//2 241//2
f 242//2 244//2 243//2
f 244//2 246//2 245//2
f 241//2 243//2 248//2
f 243//2 245//2 249//2
f 250//2 247//2 248//2
f 248//2 249//2 252//2
f 254//2 253//2 256//2
f 255//2 256//2 258//2
f 257//2 258//2 260//2
f 255//2 257//2 262//2
f 262//2 257//2 259//2
f 264//2 261//2 262//2
f 262//2 263//2 266//2
f 254//2 245//2 246//2
f 268//2 267//2 270//2
f 270//2 272//2 271//2
f 272//2 274//2 273//2
f 275//2 269//2 271//2
f 271//2 273//2 277//2
f 278//2 275//2 276//2
f 276//2 277//2 280//2
f 259//2 260//2 267//2
f 281//2 284//2 283//2
f 284//2 286//2 285//2
f 285//2 286//2 288//2
f 289//2 283//2 285//2
f 285//2 287//2 291//2
f 292//2 289//2 290//2
f 290//2 291//2 294//2
f 282//2 273//2 274//2
f 296//2 295//2 298//2
f 297//2 298//2 300//2
f 300//2 302//2 301//2
f 303//2 297//2 299//2
f 299//2 301//2 305//2
f 306//2 303//2 304//2
f 304//2 305//2 308//2
f 287//2 288//2 295//2
f 310//2 309//2 312//2
f 312//2 314//2 313//2
f 313//2 314//2 316//2
f 317//2 311//2 313//2
f 318//2 313//2 315//2
f 320//2 317//2 318//2
f 318//2 319//2 322//2
f 310//2 301//2 302//2
f 324//2 323//2 326//2
f 325//2 326//2 328//2
f 327//2 328//2 330//2
f 331//2 325//2 327//2
f 332//2 327//2 329//2
f 334//2 331//2 332//2
f 332//2 333//2 336//2
f 315//2 316//2 323//2
f 337//2 340//2 339//2
f 339//2 340//2 342//2
f 342//2 344//2 343//2
f 339//2 341//2 346//2
f 346//2 341//2 343//2
f 348//2 345//2 346//2
f 346//2 347//2 350//2
f 338//2 329//2 330//2
f 352//2 351//2 354//2
f 353//2 354//2 356//2
f 355//2 356//2 358//2
f 359//2 353//2 355//2
f 360//2 355//2 357//2
f 362//2 359//2 360//2
f 360//2 361//2 364//2
f 352//2 343//2 344//2
f 357//2 358//2 239//2
f 239//2 241//2 240//2
f 242//2 243//2 241//2
f 244//2 245//2 243//2
f 241//2 248//2 247//2
f 243//2 249//2 248//2
f 250//2 248//2 251//2
f 248//2 252//2 251//2
f 254//2 256//2 255//2
f 255//2 258//2 257//2
f 257//2 260//2 259//2
f 255//2 262//2 261//2
f 262//2 259//2 263//2
f 264//2 262//2 265//2
f 262//2 266//2 265//2
f 254//2 246//2 253//2
f 268//2 270//2 269//2
f 270//2 271//2 269//2
f 272//2 273//2 271//2
f 275//2 271//2 276//2
f 271//2 277//2 276//2
f 278//2 276//2 279//2
f 276//2 280//2 279//2
f 259//2 267//2 268//2
f 281//2 283//2 282//2
f 284//2 285//2 283//2
f 285//2 288//2 287//2
f 289//2 285//2 290//2
f 285//2 291//2 290//2
f 292//2 290//2 293//2
f 290//2 294//2 293//2
f 282//2 274//2 281//2
f 296//2 298//2 297//2
f 297//2 300//2 299//2
f 300//2 301//2 299//2
f 303//2 299//2 304//2
f 299//2 305//2 304//2
f 306//2 304//2 307//2
f 304//2 308//2 307//2
f 287//2 295//2 296//2
f 310//2 312//2 311//2
f 312//2 313//2 311//2
f 313//2 316//2 315//2
f 317//2 313//2 318//2
f 318//2 315//2 319//2
f 320//2 318//2 321//2
f 318//2 322//2 321//2
f 310//2 302//2 309//2
f 324//2 326//2 325//2
f 325//2 328//2 327//2
f 327//2 330//2 329//2
f 331//2 327//2 332//2
f 332//2 329//2 333//2
f 334//2 332//2 335//2
f 332//2 336//2 335//2
f 315//2 323//2 324//2
f 337//2 339//2 338//2
f 339//2 342//2 341//2
f 342//2 343//2 341//2
f 339//2 346//2 345//2
f 346//2 343//2 347//2
f 348//2 346//2 349//2
f 346//2 350//2 349//2
f 338//2 330//2 337//2
f 352//2 354//2 353//2
f 353//2 356//2 355//2
f 355//2 358//2 357//2
f 359//2 355//2 360//2
f 360//2 357//2 361//2
f 362//2 360//2 363//2
f 360//2 364//2 363//2
f 352//2 344//2 351//2
f 357//2 239//2 240//2
