# Blender v2.81 (sub 16) OBJ File: 'hamster_2d.blend'
# www.blender.org
mtllib hamster.mtl.mtl
o HamsterBody_Plane
v -2.283217 -0.000000 -0.749799
v -1.260014 -0.000000 -0.325127
v -1.687441 -0.000000 -0.297416
v -1.287725 -0.000000 -0.193502
v -0.906705 -0.000000 -0.553739
v -0.061533 -0.000000 -0.484462
v 0.638158 -0.000000 -0.519101
v 0.832132 -0.000000 -0.546811
v 0.949901 -0.000000 -0.629943
v 1.060743 -0.000000 -0.623015
v 1.123092 -0.000000 -0.505245
v 1.323994 -0.000000 -0.401331
v 1.677303 -0.000000 -0.186574
v 1.746579 -0.000000 -0.020311
v 1.732724 -0.000000 0.083604
v 1.019178 -0.000000 0.381492
v 0.880625 -0.000000 0.360709
v 0.762855 -0.000000 0.367637
v 0.437256 -0.000000 0.443841
v 0.139368 -0.000000 0.547755
v -0.269362 -0.000000 0.610104
v -0.678093 -0.000000 0.526972
v -1.190738 -0.000000 0.360709
v -1.357001 -0.000000 0.166735
v -1.329290 -0.000000 0.055893
v -1.654889 -0.000000 -0.089587
v -1.952778 -0.000000 -0.318199
v -2.313015 -0.000000 -0.692291
v 1.000527 0.007023 -0.658369
v 1.164817 0.072362 -0.434563
v 1.216754 0.045598 -0.417361
v 1.068451 0.048633 -0.233193
v 1.055512 0.045849 -0.240109
v 1.044170 0.043447 -0.249417
v 1.097092 0.056681 -0.377181
v 1.111693 0.059899 -0.375743
v 1.082491 0.051693 -0.228934
v 1.027947 0.040141 -0.273698
v 1.034863 0.041519 -0.260759
v 1.068451 0.050270 -0.371484
v 1.055512 0.047322 -0.364568
v 1.091034 0.053575 -0.228093
v 1.097092 0.053602 -0.227496
v 1.023688 0.039363 -0.287738
v 1.023688 0.039709 -0.316940
v 1.022250 0.039218 -0.302339
v 1.027947 0.040819 -0.330980
v 1.082491 0.053430 -0.375743
v 1.034863 0.042504 -0.343919
v 1.044170 0.044700 -0.355260
v 1.111693 0.053915 -0.228934
v 1.125733 0.054465 -0.233193
v 1.138672 0.065742 -0.364568
v 1.125733 0.062958 -0.371484
v 1.138672 0.051192 -0.240109
v 1.139547 0.065928 -0.363850
v 1.150014 0.047576 -0.249417
v 1.129211 0.054670 -0.235052
v 1.159321 0.059423 -0.343919
v 1.150014 0.065321 -0.355260
v 1.150548 0.065272 -0.354610
v 1.159321 0.045239 -0.260758
v 1.166238 0.044273 -0.273698
v 1.166238 0.054043 -0.330980
v 1.170497 0.049694 -0.316940
v 1.170497 0.044713 -0.287738
v 1.171935 0.046544 -0.302339
vt 0.000000 0.000000
vt 0.000000 0.000000
vt 0.000000 0.000000
vt 0.000000 0.000000
vt 0.000000 0.000000
vt 0.000000 0.000000
vt 0.000000 0.000000
vt 0.000000 0.000000
vt 0.000000 0.000000
vt 0.000000 0.000000
vt 0.000000 0.000000
vt 0.000000 0.000000
vt 0.000000 0.000000
vt 0.000000 0.000000
vt 0.000000 0.000000
vt 0.000000 0.000000
vt 0.000000 0.000000
vt 0.000000 0.000000
vt 0.000000 0.000000
vt 0.000000 0.000000
vt 0.000000 0.000000
vt 0.000000 0.000000
vt 0.000000 0.000000
vt 0.000000 0.000000
vt 0.000000 0.000000
vt 0.000000 0.000000
vt 0.000000 0.000000
vt 0.000000 0.000000
vt 0.000000 0.000000
vt 0.000000 0.000000
vt 0.000000 0.000000
vt 0.000000 0.000000
vt 0.000000 0.000000
vt 0.000000 0.000000
vt 0.000000 0.000000
vt 0.000000 0.000000
vt 0.000000 0.000000
vt 0.000000 0.000000
vt 0.000000 0.000000
vt 0.000000 0.000000
vt 0.000000 0.000000
vt 0.000000 0.000000
vt 0.000000 0.000000
vt 0.000000 0.000000
vt 0.000000 0.000000
vt 0.000000 0.000000
vt 0.000000 0.000000
vt 0.000000 0.000000
vt 0.000000 0.000000
vt 0.000000 0.000000
vt 0.000000 0.000000
vt 0.000000 0.000000
vt 0.000000 0.000000
vt 0.000000 0.000000
vt 0.000000 0.000000
vt 0.000000 0.000000
vt 0.000000 0.000000
vt 0.000000 0.000000
vt 0.000000 0.000000
vt 0.000000 0.000000
vt 0.000000 0.000000
vt 0.000000 0.000000
vt 0.000000 0.000000
vt 0.000000 0.000000
vt 0.000000 0.000000
vt 0.000000 0.000000
vt 0.000000 0.000000
vn -0.0136 0.9761 0.2170
vn 0.0000 1.0000 0.0000
vn 0.1059 0.6629 -0.7412
vn -0.2162 0.9763 0.0116
vn 0.4121 0.8982 0.1532
vn -0.0129 0.9962 0.0860
vn 0.3690 0.9183 0.1437
usemtl HamsterBody
s off
f 9/1/1 10/2/1 29/3/1
f 9/1/2 11/4/2 10/2/2
f 8/5/2 11/4/2 9/1/2
f 8/5/3 30/6/3 11/4/3
f 13/7/2 12/8/2 15/9/2
f 30/6/4 8/5/4 17/10/4 42/11/4 37/12/4 32/13/4 33/14/4 34/15/4 39/16/4 38/17/4 44/18/4 46/19/4 45/20/4 47/21/4 49/22/4 50/23/4 41/24/4 40/25/4 48/26/4 35/27/4 36/28/4 54/29/4 53/30/4 56/31/4
f 17/10/2 8/5/2 7/32/2
f 27/33/2 1/34/2 28/35/2
f 23/36/2 4/37/2 25/38/2
f 30/6/5 61/39/5 59/40/5 64/41/5 65/42/5 67/43/5 66/44/5 63/45/5 62/46/5 57/47/5 55/48/5 58/49/5 16/50/5 31/51/5
f 17/10/6 16/50/6 58/49/6 52/52/6 51/53/6 43/54/6 42/11/6
f 26/55/2 3/56/2 27/33/2
f 21/57/2 6/58/2 22/59/2
f 3/56/2 1/34/2 27/33/2
f 13/7/2 15/9/2 14/60/2
f 24/61/2 23/36/2 25/38/2
f 6/58/2 19/62/2 7/32/2
f 6/58/2 20/63/2 19/62/2
f 7/32/2 18/64/2 17/10/2
f 15/9/2 12/8/2 16/50/2
f 20/63/2 6/58/2 21/57/2
f 26/55/2 4/37/2 3/56/2
f 7/32/2 19/62/2 18/64/2
f 26/55/2 25/38/2 4/37/2
f 22/59/2 5/65/2 4/37/2
f 22/59/2 6/58/2 5/65/2
f 16/50/7 12/8/7 31/51/7
f 22/59/2 4/37/2 23/36/2
f 4/37/2 5/65/2 2/66/2
f 56/31/6 60/67/6 61/39/6 30/6/6
o HamsterWheelStand_Cube.001
v -2.871400 -0.000000 4.272573
v -2.871400 0.000000 3.734089
v 2.871400 0.000000 3.734089
v 2.871400 -0.000000 4.272573
v -0.145937 0.000000 0.092514
v 0.190509 -0.000000 -0.089111
v 1.912190 0.000000 3.740831
v 2.514375 0.000000 3.741342
v -2.473684 0.000000 3.745180
v -1.871545 0.000000 3.744285
v -0.153542 -0.000000 -0.079135
v 0.182904 0.000000 0.102489
v -2.804786 -0.000000 4.217618
v -2.804786 0.000000 3.789044
v 2.804786 0.000000 3.789044
v 2.804786 -0.000000 4.217618
v 2.313647 0.000000 3.741172
v 2.112918 0.000000 3.741001
v -0.033788 0.000000 0.031972
v 0.078360 -0.000000 -0.028570
v -2.272971 0.000000 3.744882
v -2.072258 0.000000 3.744584
v 0.070755 0.000000 0.041948
v -0.041393 -0.000000 -0.018594
vt 0.000000 0.000000
vt 0.000000 0.000000
vt 0.000000 0.000000
vt 0.000000 0.000000
vt 0.000000 0.000000
vt 0.000000 0.000000
vt 0.000000 0.000000
vt 0.000000 0.000000
vt 0.875000 0.500000
vt 0.875000 0.750000
vt 0.875000 0.750000
vt 0.875000 0.500000
vt 0.625000 0.750000
vt 0.625000 0.750000
vt 0.625000 0.500000
vt 0.625000 0.500000
vt 0.000000 0.000000
vt 0.000000 0.000000
vt 0.000000 0.000000
vt 0.000000 0.000000
vt 0.000000 0.000000
vt 0.000000 0.000000
vt 0.000000 0.000000
vt 0.000000 0.000000
vn -0.0000 1.0000 -0.0000
usemtl Stand
s off
f 88/68/8 91/69/8 78/70/8 76/71/8
f 86/72/8 72/73/8 74/74/8 85/75/8
f 69/76/8 68/77/8 80/78/8 81/79/8
f 68/77/8 71/80/8 83/81/8 80/78/8
f 71/80/8 70/82/8 82/83/8 83/81/8
f 70/82/8 69/76/8 81/79/8 82/83/8
f 73/84/8 87/85/8 84/86/8 75/87/8
f 77/88/8 79/89/8 90/90/8 89/91/8
o HamsterFrontLegs_Cube.005
v -0.141176 0.000000 0.012344
v -0.101216 0.000000 -0.155632
v 0.002641 0.000000 -0.211815
v 0.110966 0.000000 -0.147670
v 0.156806 0.000000 0.013812
v 0.130160 0.000000 0.209851
v -0.126043 0.000000 0.254898
v 0.097706 0.000000 0.465508
v 0.201607 0.000000 0.345597
v 0.333316 -0.000000 0.583913
v 0.388031 0.000000 0.462061
v 0.570862 -0.000000 0.605160
v 0.502126 -0.000000 0.640024
v 0.564289 0.000000 0.546979
vt 0.000000 0.000000
vt 0.000000 0.000000
vt 0.000000 0.000000
vt 0.000000 0.000000
vt 0.000000 0.000000
vt 0.000000 0.000000
vt 0.000000 0.000000
vt 0.000000 0.000000
vt 0.000000 0.000000
vt 0.000000 0.000000
vt 0.000000 0.000000
vt 0.000000 0.000000
vt 0.000000 0.000000
vt 0.000000 0.000000
vn 0.0000 1.0000 0.0000
usemtl FrontLegs
s off
f 104/92/9 103/93/9 101/94/9
f 97/95/9 99/96/9 100/97/9
f 94/98/9 93/99/9 95/100/9
f 95/100/9 92/101/9 96/102/9
f 95/100/9 93/99/9 92/101/9
f 96/102/9 92/101/9 97/95/9
f 99/96/9 97/95/9 98/103/9
f 98/103/9 97/95/9 92/101/9
f 103/93/9 105/104/9 101/94/9
f 101/94/9 100/97/9 99/96/9
f 102/105/9 101/94/9 105/104/9
f 100/97/9 101/94/9 102/105/9
o HamsterHindLegs_Cube.004
v -0.212467 0.000000 0.012497
v -0.133439 0.000000 -0.161141
v 0.009487 0.000000 -0.206849
v 0.174432 0.000000 -0.147234
v 0.225935 0.000000 0.014815
v 0.209105 0.000000 0.230942
v -0.219685 0.000000 0.219556
v -0.206084 0.000000 0.355413
v 0.062293 0.000000 0.439536
v -0.236401 0.000000 0.537342
v -0.018258 -0.000000 0.672524
v -0.238523 -0.000000 0.772484
v -0.290478 -0.000000 0.676395
v 0.288009 -0.000000 0.893006
v 0.509670 -0.000000 0.995968
v -0.084853 -0.000000 0.838391
v 0.248734 -0.000000 0.982795
v 0.459561 -0.000000 1.054614
vt 0.000000 0.000000
vt 0.000000 0.000000
vt 0.000000 0.000000
vt 0.000000 0.000000
vt 0.000000 0.000000
vt 0.000000 0.000000
vt 0.000000 0.000000
vt 0.000000 0.000000
vt 0.000000 0.000000
vt 0.000000 0.000000
vt 0.000000 0.000000
vt 0.000000 0.000000
vt 0.000000 0.000000
vt 0.000000 0.000000
vt 0.000000 0.000000
vt 0.000000 0.000000
vt 0.000000 0.000000
vt 0.000000 0.000000
vn -0.0000 1.0000 0.0000
usemtl HindLegs
s off
f 110/106/10 108/107/10 106/108/10
f 121/109/10 122/110/10 119/111/10
f 122/110/10 123/112/10 119/111/10
f 123/112/10 120/113/10 119/111/10
f 119/111/10 116/114/10 121/109/10
f 117/115/10 121/109/10 116/114/10
f 115/116/10 118/117/10 116/114/10
f 118/117/10 117/115/10 116/114/10
f 106/108/10 112/118/10 111/119/10
f 112/118/10 113/120/10 114/121/10
f 113/120/10 115/116/10 114/121/10
f 114/121/10 115/116/10 116/114/10
f 114/121/10 111/119/10 112/118/10
f 111/119/10 110/106/10 106/108/10
f 107/122/10 106/108/10 108/107/10
f 110/106/10 109/123/10 108/107/10
o HamsterWheel_Cylinder.019
v 0.000000 -0.001140 -0.292464
v 0.111921 -0.001140 -0.270202
v 0.206803 -0.001140 -0.206803
v 0.270202 -0.001140 -0.111921
v 0.292464 -0.001140 0.000000
v 0.270202 -0.001140 0.111921
v 0.206803 -0.001140 0.206803
v 0.111921 -0.001140 0.270202
v 0.000000 -0.001140 0.292464
v -0.111921 -0.001140 0.270202
v -0.206803 -0.001140 0.206803
v -0.270202 -0.001140 0.111921
v -0.292464 -0.001140 0.000000
v -0.270202 -0.001140 -0.111921
v -0.206803 -0.001140 -0.206803
v -0.111921 -0.001140 -0.270202
v -1.128727 0.000233 -2.724988
v -0.575420 0.000233 -2.892832
v -0.476146 0.000233 -2.393745
v -0.933993 0.000233 -2.254858
v -1.638658 0.000233 -2.452424
v -1.355948 0.000233 -2.029319
v -2.085615 0.000233 -2.085615
v -1.725794 0.000233 -1.725794
v -2.452424 0.000233 -1.638657
v -2.029320 0.000233 -1.355947
v -2.724988 0.000233 -1.128727
v -2.254858 0.000233 -0.933993
v -2.892832 0.000233 -0.575420
v -2.393745 0.000233 -0.476146
v -2.949506 0.000233 0.000000
v -2.440642 0.000233 0.000000
v -0.230761 0.000233 -2.926778
v 0.000000 0.000233 -2.949506
v 0.000000 0.000233 -2.440642
v -0.190949 0.000233 -2.434992
v 0.000000 0.000233 -0.205895
v -0.118501 0.000233 -0.200246
v 1.128727 0.000233 -2.724988
v 0.933993 0.000233 -2.254858
v 0.476146 0.000233 -2.393745
v 0.575420 0.000233 -2.892832
v 1.638658 0.000233 -2.452424
v 1.355948 0.000233 -2.029319
v 2.085615 0.000233 -2.085615
v 1.725794 0.000233 -1.725794
v 2.452424 0.000233 -1.638657
v 2.029320 0.000233 -1.355947
v 2.724988 0.000233 -1.128727
v 2.254858 0.000233 -0.933993
v 2.892832 0.000233 -0.575420
v 2.393745 0.000233 -0.476146
v 2.949506 0.000233 0.000000
v 2.440642 0.000233 0.000000
v 0.230761 0.000233 -2.926778
v 0.190949 0.000233 -2.434992
v 0.118501 0.000233 -0.200246
v -1.128727 0.000232 2.724988
v -0.933993 0.000232 2.254858
v -0.476146 0.000232 2.393745
v -0.575420 0.000232 2.892832
v -1.638658 0.000232 2.452424
v -1.355948 0.000232 2.029319
v -2.085615 0.000232 2.085615
v -1.725794 0.000233 1.725794
v -2.452424 0.000233 1.638657
v -2.029320 0.000233 1.355947
v -2.724988 0.000233 1.128727
v -2.254858 0.000233 0.933993
v -2.892832 0.000233 0.575420
v -2.393745 0.000233 0.476146
v -0.230761 0.000232 2.926778
v -0.190949 0.000232 2.434992
v 0.000000 0.000232 2.440642
v 0.000000 0.000232 2.949506
v -0.118501 0.000233 0.200246
v 0.000000 0.000233 0.205895
v 1.128727 0.000232 2.724988
v 0.575420 0.000232 2.892832
v 0.476146 0.000232 2.393745
v 0.933993 0.000232 2.254858
v 1.638658 0.000232 2.452424
v 1.355948 0.000232 2.029319
v 2.085615 0.000232 2.085615
v 1.725794 0.000233 1.725794
v 2.452424 0.000233 1.638657
v 2.029320 0.000233 1.355947
v 2.724988 0.000233 1.128727
v 2.254858 0.000233 0.933993
v 2.892832 0.000233 0.575420
v 2.393745 0.000233 0.476146
v 0.230761 0.000232 2.926778
v 0.190949 0.000232 2.434992
v 0.118501 0.000233 0.200246
v -0.217490 0.000232 2.762850
v -0.204220 0.000232 2.598921
v -2.568278 0.000233 -1.063815
v -2.411568 0.000233 -0.998904
v -2.311389 0.000233 -1.544420
v -2.170355 0.000233 -1.450183
v -1.063816 0.000232 2.568278
v -0.998904 0.000232 2.411568
v -0.509237 0.000232 2.560107
v -0.542329 0.000232 2.726470
v -2.779885 0.000233 0.000000
v -2.610263 0.000233 0.000000
v -2.726470 0.000233 0.542329
v -2.560107 0.000233 0.509238
v -1.544421 0.000233 -2.311389
v -1.450185 0.000233 -2.170354
v 1.544421 0.000232 2.311389
v 1.450185 0.000232 2.170354
v 0.217490 0.000233 -2.762849
v 0.204220 0.000233 -2.598920
v 1.965675 0.000232 1.965675
v 1.845734 0.000233 1.845735
v -1.965675 0.000233 -1.965674
v -1.845734 0.000233 -1.845734
v 2.568278 0.000233 1.063816
v 2.411568 0.000233 0.998904
v -0.217490 0.000233 -2.762849
v -0.204220 0.000233 -2.598920
v 0.000000 0.000233 -2.779885
v 0.000000 0.000233 -2.610263
v 2.726470 0.000233 0.542329
v 2.560107 0.000233 0.509238
v 1.965675 0.000233 -1.965674
v 1.845734 0.000233 -1.845734
v 2.311389 0.000233 -1.544420
v 2.170355 0.000233 -1.450183
v 0.217490 0.000232 2.762850
v 0.204220 0.000232 2.598921
v 0.000000 0.000232 2.610264
v 0.000000 0.000232 2.779885
v 2.568278 0.000233 -1.063815
v 2.411568 0.000233 -0.998904
v 2.311389 0.000233 1.544421
v 2.170355 0.000233 1.450184
v 1.544421 0.000233 -2.311389
v 1.450185 0.000233 -2.170354
v 0.542329 0.000232 2.726470
v 0.509237 0.000232 2.560108
v 2.779885 0.000233 0.000000
v 2.610263 0.000233 0.000000
v 1.063816 0.000233 -2.568278
v 0.998904 0.000233 -2.411568
v -1.965675 0.000232 1.965675
v -1.845734 0.000233 1.845735
v 1.063816 0.000232 2.568278
v 0.998904 0.000232 2.411568
v -2.311389 0.000233 1.544421
v -2.170355 0.000233 1.450184
v 0.509237 0.000233 -2.560107
v 0.542329 0.000233 -2.726470
v -2.726470 0.000233 -0.542328
v -2.560107 0.000233 -0.509237
v -2.568278 0.000233 1.063816
v -2.411568 0.000233 0.998904
v -1.063816 0.000233 -2.568278
v -0.998904 0.000233 -2.411568
v 2.726470 0.000233 -0.542328
v 2.560107 0.000233 -0.509237
v -1.544421 0.000232 2.311389
v -1.450185 0.000232 2.170354
v -0.542329 0.000233 -2.726470
v -0.509237 0.000233 -2.560107
vt 0.341844 0.471731
vt 0.250000 0.490000
vt 0.158156 0.471731
vt 0.080294 0.419706
vt 0.028269 0.341844
vt 0.010000 0.250000
vt 0.028269 0.158156
vt 0.080294 0.080294
vt 0.158156 0.028269
vt 0.250000 0.010000
vt 0.341844 0.028269
vt 0.419706 0.080294
vt 0.471731 0.158156
vt 0.490000 0.250000
vt 0.471731 0.341844
vt 0.419706 0.419706
vt 0.000000 0.000000
vt 0.000000 0.000000
vt 0.000000 0.000000
vt 0.000000 0.000000
vt 0.000000 0.000000
vt 0.000000 0.000000
vt 0.000000 0.000000
vt 0.000000 0.000000
vt 0.000000 0.000000
vt 0.000000 0.000000
vt 0.000000 0.000000
vt 0.000000 0.000000
vt 0.000000 0.000000
vt 0.000000 0.000000
vt 0.000000 0.000000
vt 0.000000 0.000000
vt 0.000000 0.000000
vt 0.000000 0.000000
vt 0.000000 0.000000
vt 0.000000 0.000000
vt 0.000000 0.000000
vt 0.000000 0.000000
vt 0.000000 0.000000
vt 0.000000 0.000000
vt 0.000000 0.000000
vt 0.000000 0.000000
vt 0.000000 0.000000
vt 0.000000 0.000000
vt 0.000000 0.000000
vt 0.000000 0.000000
vt 0.000000 0.000000
vt 0.000000 0.000000
vt 0.000000 0.000000
vt 0.000000 0.000000
vt 0.000000 0.000000
vt 0.000000 0.000000
vt 0.000000 0.000000
vt 0.000000 0.000000
vt 0.000000 0.000000
vt 0.000000 0.000000
vt 0.000000 0.000000
vt 0.000000 0.000000
vt 0.000000 0.000000
vt 0.000000 0.000000
vt 0.000000 0.000000
vt 0.000000 0.000000
vt 0.000000 0.000000
vt 0.000000 0.000000
vt 0.000000 0.000000
vt 0.000000 0.000000
vt 0.000000 0.000000
vt 0.000000 0.000000
vt 0.000000 0.000000
vt 0.000000 0.000000
vt 0.000000 0.000000
vt 0.000000 0.000000
vt 0.000000 0.000000
vt 0.000000 0.000000
vt 0.000000 0.000000
vt 0.000000 0.000000
vt 0.000000 0.000000
vt 0.000000 0.000000
vt 0.000000 0.000000
vt 0.000000 0.000000
vt 0.000000 0.000000
vt 0.000000 0.000000
vt 0.000000 0.000000
vt 0.000000 0.000000
vt 0.000000 0.000000
vt 0.000000 0.000000
vt 0.000000 0.000000
vt 0.000000 0.000000
vt 0.000000 0.000000
vt 0.000000 0.000000
vt 0.000000 0.000000
vt 0.000000 0.000000
vt 0.000000 0.000000
vt 0.000000 0.000000
vt 0.000000 0.000000
vt 0.000000 0.000000
vt 0.000000 0.000000
vt 0.000000 0.000000
vt 0.000000 0.000000
vt 0.000000 0.000000
vt 0.000000 0.000000
vt 0.000000 0.000000
vt 0.000000 0.000000
vt 0.000000 0.000000
vt 0.000000 0.000000
vt 0.000000 0.000000
vt 0.000000 0.000000
vt 0.000000 0.000000
vt 0.000000 0.000000
vt 0.000000 0.000000
vt 0.000000 0.000000
vt 0.000000 0.000000
vt 0.000000 0.000000
vt 0.000000 0.000000
vt 0.000000 0.000000
vt 0.000000 0.000000
vt 0.000000 0.000000
vt 0.000000 0.000000
vt 0.000000 0.000000
vt 0.000000 0.000000
vt 0.000000 0.000000
vt 0.000000 0.000000
vt 0.000000 0.000000
vt 0.000000 0.000000
vt 0.000000 0.000000
vt 0.000000 0.000000
vt 0.000000 0.000000
vt 0.000000 0.000000
vt 0.000000 0.000000
vt 0.000000 0.000000
vt 0.000000 0.000000
vt 0.000000 0.000000
vt 0.000000 0.000000
vt 0.000000 0.000000
vt 0.000000 0.000000
vt 0.000000 0.000000
vt 0.000000 0.000000
vt 0.000000 0.000000
vt 0.000000 0.000000
vt 0.000000 0.000000
vt 0.000000 0.000000
vt 0.000000 0.000000
vt 0.000000 0.000000
vt 0.000000 0.000000
vt 0.000000 0.000000
vt 0.000000 0.000000
vt 0.000000 0.000000
vt 0.000000 0.000000
vt 0.000000 0.000000
vt 0.000000 0.000000
vt 0.000000 0.000000
vt 0.000000 0.000000
vt 0.000000 0.000000
vt 0.000000 0.000000
vt 0.000000 0.000000
vt 0.000000 0.000000
vt 0.000000 0.000000
vt 0.000000 0.000000
vt 0.000000 0.000000
vt 0.000000 0.000000
vt 0.000000 0.000000
vt 0.000000 0.000000
vt 0.000000 0.000000
vt 0.000000 0.000000
vt 0.000000 0.000000
vt 0.000000 0.000000
vn 0.0000 1.0000 0.0000
usemtl Wheel
s off
f 125/124/11 124/125/11 139/126/11 138/127/11 137/128/11 136/129/11 135/130/11 134/131/11 133/132/11 132/133/11 131/134/11 130/135/11 129/136/11 128/137/11 127/138/11 126/139/11
f 283/140/11 143/141/11 142/142/11 289/143/11
f 233/144/11 145/145/11 143/141/11 283/140/11
f 241/146/11 147/147/11 145/145/11 233/144/11
f 223/148/11 149/149/11 147/147/11 241/146/11
f 221/150/11 151/151/11 149/149/11 223/148/11
f 279/152/11 153/153/11 151/151/11 221/150/11
f 229/154/11 155/155/11 153/153/11 279/152/11
f 245/156/11 159/157/11 158/158/11 247/159/11
f 159/157/11 161/160/11 160/161/11 158/158/11
f 289/143/11 142/142/11 159/157/11 245/156/11
f 269/162/11 276/163/11 164/164/11 163/165/11
f 263/166/11 269/162/11 163/165/11 167/167/11
f 251/168/11 263/166/11 167/167/11 169/169/11
f 253/170/11 251/168/11 169/169/11 171/171/11
f 259/172/11 253/170/11 171/171/11 173/173/11
f 285/174/11 259/172/11 173/173/11 175/175/11
f 267/176/11 285/174/11 175/175/11 177/177/11
f 237/178/11 247/159/11 158/158/11 179/179/11
f 179/179/11 158/158/11 160/161/11 180/180/11
f 276/163/11 237/178/11 179/179/11 164/164/11
f 225/181/11 226/182/11 183/183/11 182/184/11
f 287/185/11 225/181/11 182/184/11 186/186/11
f 271/187/11 287/185/11 186/186/11 188/188/11
f 275/189/11 271/187/11 188/188/11 190/190/11
f 281/191/11 275/189/11 190/190/11 192/192/11
f 231/193/11 281/191/11 192/192/11 194/194/11
f 229/154/11 231/193/11 194/194/11 155/155/11
f 219/195/11 256/196/11 197/197/11 196/198/11
f 196/198/11 197/197/11 200/199/11 199/200/11
f 226/182/11 219/195/11 196/198/11 183/183/11
f 273/201/11 204/202/11 203/203/11 265/204/11
f 235/205/11 206/206/11 204/202/11 273/201/11
f 239/207/11 208/208/11 206/206/11 235/205/11
f 261/209/11 210/210/11 208/208/11 239/207/11
f 243/211/11 212/212/11 210/210/11 261/209/11
f 249/213/11 214/214/11 212/212/11 243/211/11
f 267/176/11 177/177/11 214/214/11 249/213/11
f 255/215/11 216/216/11 197/197/11 256/196/11
f 216/216/11 217/217/11 200/199/11 197/197/11
f 265/204/11 203/203/11 216/216/11 255/215/11
f 202/218/11 264/219/11 254/220/11 215/221/11
f 215/221/11 254/220/11 257/222/11 198/223/11
f 176/224/11 266/225/11 248/226/11 213/227/11
f 213/227/11 248/226/11 242/228/11 211/229/11
f 211/229/11 242/228/11 260/230/11 209/231/11
f 209/231/11 260/230/11 238/232/11 207/233/11
f 207/233/11 238/232/11 234/234/11 205/235/11
f 205/235/11 234/234/11 272/236/11 201/237/11
f 201/237/11 272/236/11 264/219/11 202/218/11
f 184/238/11 195/239/11 218/240/11 227/241/11
f 195/239/11 198/223/11 257/222/11 218/240/11
f 154/242/11 193/243/11 230/244/11 228/245/11
f 193/243/11 191/246/11 280/247/11 230/244/11
f 191/246/11 189/248/11 274/249/11 280/247/11
f 189/248/11 187/250/11 270/251/11 274/249/11
f 187/250/11 185/252/11 286/253/11 270/251/11
f 185/252/11 181/254/11 224/255/11 286/253/11
f 181/254/11 184/238/11 227/241/11 224/255/11
f 165/256/11 178/257/11 236/258/11 277/259/11
f 178/257/11 157/260/11 246/261/11 236/258/11
f 176/224/11 174/262/11 284/263/11 266/225/11
f 174/262/11 172/264/11 258/265/11 284/263/11
f 172/264/11 170/266/11 252/267/11 258/265/11
f 170/266/11 168/268/11 250/269/11 252/267/11
f 168/268/11 166/270/11 262/271/11 250/269/11
f 166/270/11 162/272/11 268/273/11 262/271/11
f 162/272/11 165/256/11 277/259/11 268/273/11
f 141/274/11 288/275/11 244/276/11 156/277/11
f 156/277/11 244/276/11 246/261/11 157/260/11
f 154/242/11 228/245/11 278/278/11 152/279/11
f 152/279/11 278/278/11 220/280/11 150/281/11
f 150/281/11 220/280/11 222/282/11 148/283/11
f 148/283/11 222/282/11 240/284/11 146/285/11
f 146/285/11 240/284/11 232/286/11 144/287/11
f 144/287/11 232/286/11 282/288/11 140/289/11
f 140/289/11 282/288/11 288/275/11 141/274/11
